<?xml version="1.0" encoding="utf-8"?>
<!-- Generator: Adobe Illustrator 23.0.2, SVG Export Plug-In . SVG Version: 6.00 Build 0)  -->
<svg version="1.1" id="Layer_1" xmlns="http://www.w3.org/2000/svg" xmlns:xlink="http://www.w3.org/1999/xlink" x="0px" y="0px"
	 viewBox="0 0 300 300" style="enable-background:new 0 0 300 300;" xml:space="preserve">

<symbol viewBox="0 0 300 300" fill-rule="evenodd" id="AccidentIcon">
<g >
	<g>
		<path style="fill:white;" d="M154.75,233.17c6.26,0,12.25,0,18.36,0c0.27-1.17,0.5-2.34,0.81-3.49c2.97-11.16,12.87-18.98,24.19-19.13
			c11.66-0.15,21.81,7.29,24.98,18.53c0.51,1.8,1.29,2.2,2.97,2.17c5.82-0.09,11.65-0.08,17.48-0.04c3.26,0.03,5.26,1.86,5.28,4.64
			c0.02,2.21-1.4,4.1-3.56,4.59c-0.87,0.2-1.78,0.25-2.68,0.25c-5.71,0.02-11.41,0.06-17.12-0.01c-1.36-0.02-1.85,0.45-2.17,1.72
			c-2.72,10.89-12.42,18.76-23.57,19.21c-11.23,0.45-21.52-6.48-25.16-17.08c-0.5-1.45-1.14-1.9-2.64-1.89
			c-14.59,0.06-29.19,0.05-43.78,0.01c-1.45,0-2.17,0.34-2.69,1.84c-3.66,10.65-13.9,17.57-25.12,17.13
			c-11.07-0.43-20.75-8.19-23.54-19.01c-0.4-1.56-1.05-1.94-2.56-1.93c-12.97,0.06-25.95,0.04-38.92,0.02
			c-1.01,0-2.06-0.06-3.03-0.31c-2.14-0.55-3.53-2.7-3.34-4.95c0.17-2.03,1.84-3.81,3.92-4.1c0.83-0.12,1.68-0.11,2.52-0.11
			c13.03-0.01,26.07-0.03,39.1,0.02c1.38,0,1.96-0.41,2.33-1.79c3.15-11.72,13.62-19.3,25.96-18.88
			c11.38,0.39,21.38,9.11,23.68,20.64c0.13,0.64,0.29,1.27,0.44,1.95c6.1,0,12.09,0,18.07,0c0.09-0.11,0.24-0.19,0.24-0.28
			c0.42-9.06,0.03-18.01-3.78-26.48c-0.53-1.17-1.18-1.57-2.44-1.56c-4.92,0.06-9.85,0.04-14.77,0.01
			c-8.81-0.06-14.91-6.13-15.03-14.95c-0.04-2.88-0.04-5.77,0.03-8.65c0.03-1.24-0.32-1.92-1.65-2.02c-3.23-0.25-6.45-0.79-9.67-0.8
			c-21.14-0.07-42.28-0.03-63.42-0.03c-3.06,0-5.2-1.61-5.52-4.08c-0.39-2.99,1.79-5.36,5.08-5.39c5.53-0.05,11.05-0.03,16.58-0.03
			c13.51,0,27.03,0,40.54-0.01c0.52,0,1.04-0.06,1.81-0.11c-0.36-0.71-0.6-1.24-0.89-1.73c-6.35-10.89-12.72-21.76-19.02-32.67
			c-0.64-1.11-1.34-1.45-2.55-1.44c-11.65,0.04-23.3,0.03-34.96,0.03c-0.66,0-1.32,0.02-1.98-0.03c-2.71-0.23-4.65-2.26-4.63-4.81
			c0.03-2.58,1.97-4.57,4.76-4.63c4.14-0.09,8.29-0.06,12.43-0.06c9.25,0,18.5,0.05,27.75-0.01c2.64-0.02,4.4,1,5.68,3.3
			c2.61,4.66,5.36,9.24,8.06,13.85c0.3,0.51,0.62,1.01,1.13,1.86c6.21-6.87,12.29-13.58,18.52-20.47c-0.72-0.41-1.21-0.71-1.72-0.98
			c-9.01-4.78-18.02-9.56-27.03-14.34c-2.71-1.44-3.75-3.2-3.31-5.54c0.43-2.31,2.07-3.58,5.11-4c9.75-1.33,19.5-2.65,29.25-3.98
			c0.88-0.12,1.76-0.29,2.85-0.47c-0.69-1.72-1.3-3.27-1.93-4.82c-3.45-8.5-6.88-17.01-10.37-25.5c-0.84-2.06-0.95-3.97,0.6-5.71
			c1.64-1.84,3.98-2.1,6.37-0.61c6.17,3.83,12.31,7.71,18.46,11.57c3.14,1.97,6.28,3.93,9.62,6.02c1.34-4.08,2.62-7.94,3.87-11.81
			c2.1-6.5,4.18-13.02,6.27-19.52c0.81-2.51,2.57-3.94,4.78-3.91c2.17,0.04,3.83,1.42,4.63,3.87c3.13,9.7,6.26,19.4,9.39,29.1
			c0.22,0.68,0.48,1.34,0.8,2.24c1.6-0.99,3.07-1.89,4.52-2.8c7.83-4.92,15.63-9.86,23.48-14.74c3.2-1.99,6.87-0.66,7.48,2.76
			c0.2,1.15-0.12,2.51-0.57,3.63c-3.76,9.41-7.61,18.79-11.43,28.18c-0.24,0.6-0.43,1.23-0.73,2.07c4.65,0.65,9.15,1.28,13.64,1.9
			c6.18,0.85,12.37,1.68,18.55,2.55c3.11,0.44,4.75,1.87,5,4.31c0.24,2.4-0.94,3.96-3,5.05c-7.49,3.94-14.96,7.9-22.43,11.86
			c-2.12,1.12-4.22,2.26-6.67,3.57c6.2,6.85,12.28,13.57,18.57,20.53c1.78-3.03,3.41-5.8,5.03-8.57c1.52-2.59,3.05-5.17,4.53-7.78
			c1.02-1.8,2.54-2.64,4.58-2.64c13.45,0,26.91-0.03,40.36,0c3.19,0.01,5.27,1.92,5.29,4.68c0.03,2.84-2.11,4.81-5.36,4.82
			c-12.01,0.02-24.02,0.03-36.04-0.02c-1.36-0.01-2.12,0.39-2.83,1.61c-6.26,10.87-12.61,21.68-18.93,32.52
			c-0.29,0.5-0.53,1.03-0.96,1.87c1.01,0,1.71,0,2.4,0c18.56,0,37.12,0,55.68,0c0.36,0,0.72,0,1.08,0.01c2.97,0.12,5,2.1,4.96,4.83
			c-0.05,2.61-2.13,4.6-4.98,4.64c-4.62,0.05-9.25,0.03-13.87,0.03c-16.82,0-33.63-0.05-50.45,0.03c-3.16,0.02-6.32,0.55-9.49,0.82
			c-1.13,0.1-1.51,0.68-1.49,1.79c0.05,3,0.04,6.01,0.01,9.01c-0.09,8.65-6.29,14.78-14.97,14.8c-4.93,0.01-9.85,0.05-14.77-0.03
			c-1.37-0.02-2.01,0.46-2.53,1.68c-2.31,5.48-3.62,11.18-3.79,17.12C154.68,226.74,154.75,229.85,154.75,233.17z M98.99,145.28
			c1.23,0,1.88,0,2.53,0c8.29,0,16.58-0.03,24.86,0.03c1.09,0.01,2.29,0.26,3.24,0.78c1.86,1.01,2.56,3.22,1.97,5.32
			c-0.55,1.94-2.38,3.29-4.64,3.3c-9.61,0.02-19.22,0.01-28.83,0.01c-0.62,0-1.25,0-2.16,0c0.46,0.84,0.72,1.36,1.01,1.87
			c1.93,3.32,3.95,6.59,5.76,9.98c0.98,1.83,2.12,2.7,4.33,3.05c16.61,2.64,29.54,11.12,38.79,25.16c1.5,2.27,2.73,4.72,4.22,7.31
			c1.02-1.91,1.87-3.67,2.88-5.34c9.49-15.55,23.21-24.72,41.27-27.39c0.8-0.12,1.78-0.76,2.2-1.45c2.36-3.83,4.58-7.74,6.84-11.64
			c0.25-0.43,0.42-0.91,0.72-1.56c-0.94,0-1.6,0-2.25,0c-9.37,0-18.74,0.03-28.11-0.04c-1.14-0.01-2.41-0.32-3.39-0.89
			c-1.78-1.03-2.39-3.2-1.8-5.22c0.57-1.93,2.4-3.27,4.66-3.28c8.53-0.03,17.06-0.02,25.58-0.02c0.61,0,1.23,0,2.23,0
			c-0.64-0.8-0.96-1.22-1.31-1.61c-5.71-6.33-11.43-12.65-17.14-18.98c-3.35-3.71-2.77-6.65,1.72-9c6.27-3.29,12.52-6.6,18.78-9.91
			c0.5-0.27,0.97-0.6,1.78-1.1c-8.12-1.14-15.83-2.26-23.55-3.31c-4.3-0.58-5.97-3.35-4.33-7.43c2.48-6.18,5-12.34,7.49-18.51
			c0.41-1.01,0.76-2.05,1.32-3.56c-1.09,0.65-1.7,0.99-2.3,1.37c-6,3.76-11.99,7.54-18.01,11.27c-3.47,2.15-6.58,1.04-7.82-2.75
			c-1.45-4.45-2.87-8.9-4.32-13.35c-0.99-3.03-2.01-6.06-3.01-9.09c-0.68,0.79-0.95,1.56-1.2,2.34c-2.18,6.73-4.35,13.46-6.54,20.19
			c-1.16,3.54-4.15,4.69-7.41,2.88c-0.47-0.26-0.92-0.56-1.38-0.85c-5.79-3.64-11.58-7.29-17.37-10.93
			c-0.5-0.32-1.05-0.56-1.92-1.01c0.28,0.81,0.37,1.15,0.5,1.48c2.82,6.94,5.66,13.88,8.45,20.83c1.38,3.44-0.26,6.5-3.78,7.02
			c-4.69,0.7-9.39,1.27-14.09,1.93c-3.27,0.46-6.52,0.96-10.28,1.51c1.12,0.61,1.74,0.96,2.37,1.3c6.26,3.31,12.53,6.59,18.77,9.94
			c3.93,2.11,4.43,5.18,1.46,8.49c-4.58,5.09-9.18,10.16-13.77,15.24C102.46,141.4,100.91,143.14,98.99,145.28z M117.46,236.17
			c0.05-8.8-7.15-16.12-15.92-16.18c-8.83-0.07-16.25,7.29-16.24,16.1c0.01,8.76,7.3,16.06,16.07,16.07
			C110.23,252.16,117.41,245.02,117.46,236.17z M182.56,236.01c-0.05,8.83,7.09,16.06,15.94,16.14c8.85,0.08,16.24-7.25,16.22-16.09
			c-0.02-8.68-7.25-15.99-15.9-16.08C189.91,219.89,182.61,227.09,182.56,236.01z M134.61,195.36c-4.59-5.41-9.63-9.42-15.83-12.35
			c0,3.03-0.16,5.77,0.05,8.49c0.15,1.91,2.11,3.74,4.04,3.82C126.62,195.46,130.38,195.36,134.61,195.36z M181.24,182.99
			c-6.19,3-11.3,6.94-15.79,12.36c4.19,0,7.95,0.11,11.7-0.04c1.95-0.08,3.88-1.9,4.03-3.83
			C181.4,188.77,181.24,186.02,181.24,182.99z"/>
		<path style="fill:white;" d="M55.86,200.7c-1.62,0-3.24,0.08-4.85-0.02c-2.64-0.16-4.44-1.97-4.55-4.44c-0.11-2.54,1.59-4.74,4.25-4.9
			c3.46-0.2,6.95-0.19,10.42,0.01c2.57,0.15,4.28,2.32,4.21,4.75c-0.06,2.42-1.89,4.38-4.44,4.57
			C59.23,200.81,57.54,200.71,55.86,200.7C55.86,200.71,55.86,200.71,55.86,200.7z"/>
		<path style="fill:white;" d="M244.17,200.7c-1.62,0-3.24,0.08-4.85-0.01c-2.68-0.15-4.57-2.07-4.63-4.57c-0.06-2.49,1.74-4.67,4.38-4.81
			c3.41-0.18,6.84-0.17,10.24,0.04c2.66,0.16,4.37,2.35,4.26,4.89c-0.11,2.46-1.92,4.29-4.54,4.45
			C247.41,200.78,245.78,200.7,244.17,200.7z"/>
		<path style="fill:white;" d="M266.81,235.89c0.01,2.56-2.09,4.7-4.64,4.74c-2.59,0.05-4.81-2.17-4.78-4.79c0.03-2.58,2.12-4.61,4.73-4.6
			C264.75,231.26,266.81,233.3,266.81,235.89z"/>
		<path style="fill:white;" d="M106.09,235.91c0,2.6-2.06,4.71-4.61,4.76c-2.58,0.04-4.83-2.22-4.79-4.82c0.04-2.57,2.16-4.62,4.76-4.6
			C104.09,231.26,106.09,233.27,106.09,235.91z"/>
		<path style="fill:white;" d="M193.93,235.99c-0.03-2.65,1.91-4.69,4.55-4.77c2.65-0.07,4.86,2.07,4.86,4.7c-0.01,2.55-2.14,4.69-4.69,4.72
			C196.1,240.66,193.96,238.56,193.93,235.99z"/>
	</g>
</g>
</symbol>
</svg>
