<?xml version="1.0" encoding="utf-8"?>
<!-- Generator: Adobe Illustrator 23.0.2, SVG Export Plug-In . SVG Version: 6.00 Build 0)  -->
<svg version="1.1" id="Layer_1" xmlns="http://www.w3.org/2000/svg" xmlns:xlink="http://www.w3.org/1999/xlink" x="0px" y="0px"
	 viewBox="0 0 300 300" style="enable-background:new 0 0 300 300;" xml:space="preserve">
	  <symbol viewBox="0 0 300 300" fill-rule="evenodd" id="AssignedIcon">
<g>
	<path style="fill:white;" d="M67.88,216.02c-4.23,0.02-7.67,3.48-7.65,7.71c0.02,4.23,3.48,7.67,7.71,7.65c4.23-0.02,7.67-3.48,7.65-7.71
		C75.57,219.44,72.11,216,67.88,216.02z"/>
	<path style="fill:white;" d="M231.83,215.39c-4.23,0.02-7.67,3.48-7.65,7.71s3.48,7.67,7.71,7.65c4.23-0.02,7.67-3.48,7.65-7.71
		S236.07,215.38,231.83,215.39z"/>
	<g>
		<g>
			<g>
				<path style="fill:white;" d="M68.1,196.08c-15.05,0.06-27.26,12.36-27.2,27.41c0.06,15.05,12.36,27.26,27.41,27.2
					s27.26-12.36,27.2-27.41S83.15,196.03,68.1,196.08z M68.27,239.78c-9.03,0.03-16.41-7.29-16.45-16.32s7.29-16.41,16.32-16.45
					s16.41,7.29,16.45,16.32C84.62,232.36,77.3,239.74,68.27,239.78z"/>
			</g>
		</g>
		<g>
			<g>
				<path style="fill:white;" d="M231.94,195.46c-15.05,0.06-27.26,12.36-27.2,27.41s12.36,27.26,27.41,27.2s27.26-12.36,27.2-27.41
					C259.3,207.61,247,195.4,231.94,195.46z M232.11,239.15c-9.03,0.03-16.41-7.29-16.45-16.32s7.29-16.41,16.32-16.45
					s16.41,7.29,16.45,16.32C248.47,231.74,241.14,239.12,232.11,239.15z"/>
			</g>
		</g>
		<g>
			<g>
				<path style="fill:white;" d="M248.2,162.63l-9.24,0.04c-3.38,0.01-6.69-1.13-9.34-3.24l-43.17-34.27c-4.84-3.84-10.91-5.94-17.08-5.92
					l-78.95,0.3c-9.15,0.03-17.62,4.61-22.67,12.24l-9.24,14c-2.77,4.17-7.41,6.68-12.42,6.7c-15.05,0.06-27.26,12.36-27.2,27.41
					l0.08,21.85c0.06,15.05,12.36,27.26,27.41,27.2c3.01-0.01,5.45-2.47,5.44-5.48c-0.01-3.01-2.47-5.45-5.48-5.44
					c-9.03,0.03-16.41-7.29-16.45-16.32l-0.08-21.85c-0.03-9.03,7.29-16.41,16.32-16.45c8.67-0.03,16.7-4.37,21.49-11.61l9.24-13.98
					c3.03-4.58,8.12-7.33,13.6-7.35l78.95-0.3c3.71-0.01,7.35,1.25,10.26,3.55l43.17,34.25c4.57,3.64,10.32,5.64,16.18,5.62
					l9.23-0.04c16.02-0.06,21.91,16.25,21.95,27.22c0.04,10.76-8.17,16.42-16.32,16.45c-3.01,0.01-5.45,2.47-5.44,5.48
					c0.01,3.01,2.47,5.45,5.48,5.44c15.57-0.06,27.26-11.85,27.2-27.41C281.05,182.2,269.49,162.55,248.2,162.63z"/>
			</g>
		</g>
		<g>
			<g>
				<path style="fill:white;" d="M210.18,217.39l-120.15,0.46c-3.01,0.01-5.45,2.47-5.44,5.48c0.01,3.01,2.47,5.45,5.48,5.44l120.15-0.46
					c3.01-0.01,5.45-2.47,5.44-5.48C215.65,219.81,213.2,217.38,210.18,217.39z"/>
			</g>
		</g>
		<g>
			<g>
				<path style="fill:white;" d="M199.05,162.81L149.9,163l-0.06-16.38c-0.01-3.01-2.47-5.45-5.48-5.44s-5.45,2.47-5.44,5.48l0.08,21.85
					c0.01,3.01,2.47,5.45,5.48,5.44l54.62-0.21c3.01-0.01,5.45-2.47,5.44-5.48C204.52,165.24,202.06,162.8,199.05,162.81z"/>
			</g>
		</g>
		<g>
			<g>
				<path style="fill:white;" d="M122.59,163.11l-34.86,0.13l6.93-13.96c1.33-2.7,0.23-5.98-2.47-7.32c-2.71-1.33-5.98-0.24-7.32,2.47
					l-10.84,21.89c-0.85,1.69-0.74,3.71,0.26,5.31s2.76,2.58,4.65,2.57l43.69-0.17c3.01-0.01,5.45-2.47,5.44-5.48
					S125.6,163.1,122.59,163.11z"/>
			</g>
		</g>
		<g>
			<g>
				<path style="fill:white;" d="M166.36,184.79l-10.92,0.04c-3.01,0.01-5.45,2.47-5.44,5.48c0.01,3.01,2.47,5.45,5.48,5.44l10.92-0.04
					c3.01-0.01,5.45-2.47,5.44-5.48C171.83,187.21,169.38,184.77,166.36,184.79z"/>
			</g>
		</g>
	</g>
</g>
 </symbol>
</svg>
