<?xml version="1.0" encoding="utf-8"?>
<!-- Generator: Adobe Illustrator 23.0.2, SVG Export Plug-In . SVG Version: 6.00 Build 0)  -->
<svg version="1.1" id="Layer_1" xmlns="http://www.w3.org/2000/svg" xmlns:xlink="http://www.w3.org/1999/xlink" x="0px" y="0px"
	 viewBox="0 0 300 300" style="enable-background:new 0 0 300 300;" xml:space="preserve">
<style type="text/css">
	.st0{fill:#FFFFFF;}
	.st1{fill:#010101;}
	.st2{fill:#F8B222;}
</style>
<symbol  viewBox="0 0 260 260" fill-rule="evenodd" id="example3">
<g>
	<g>
		<path style="fill:#F8B222;" d="M233.23,170.08c-2.56-33.29-18.06-54.15-31.73-72.56c-12.66-17.04-23.6-31.76-23.6-53.47
			c0-1.74-0.98-3.34-2.53-4.14c-1.55-0.8-3.42-0.67-4.83,0.35c-20.54,14.69-37.67,39.46-43.65,63.09
			c-4.16,16.45-4.7,34.95-4.78,47.16c-18.96-4.05-23.26-32.42-23.31-32.73c-0.21-1.47-1.11-2.75-2.42-3.45
			c-1.32-0.69-2.87-0.74-4.21-0.08c-0.99,0.48-24.41,12.38-25.77,59.88c-0.1,1.58-0.1,3.17-0.1,4.75c0,46.15,37.55,83.7,83.7,83.7
			c0.06,0,0.13,0.01,0.19,0c0.02,0,0.04,0,0.06,0c46.04-0.13,83.46-37.63,83.46-83.7C233.7,176.58,233.23,170.08,233.23,170.08z"/>
	</g>
</g>
</symbol>
</svg>