<?xml version="1.0" encoding="utf-8"?>
<!-- Generator: Adobe Illustrator 23.0.2, SVG Export Plug-In . SVG Version: 6.00 Build 0)  -->
<svg version="1.1" id="Layer_1" xmlns="http://www.w3.org/2000/svg" xmlns:xlink="http://www.w3.org/1999/xlink" x="0px" y="0px"
	 viewBox="0 0 300 300" style="enable-background:new 0 0 300 300;" xml:space="preserve">
<symbol viewBox="0 0 300 300" fill-rule="evenodd" id="LeaveIcon">

<g>
	<path  style="fill:white;" d="M103.32,273.96c-1.14,0-2.73-0.72-3.46-1.58c-0.83-0.97-1.13-2.81-1.06-4.19c0.28-5.38,0.73-11.23,1.43-18.41
		c0.63-6.47,1.33-13.04,2-19.4c0.41-3.88,0.82-7.76,1.22-11.64c0.16-1.57,0.29-3.17,0.41-4.72c0.25-3.17,0.51-6.44,1.09-9.58
		c0.58-3.18-0.06-5.61-2.02-7.66c-9.46-9.86-12.31-22.59-14.42-34.79l-0.32-1.85c-1.35-7.78-2.74-15.83-3.77-23.79
		c-0.38-2.99-0.26-6.13-0.14-9.17c0.04-0.93,0.07-1.86,0.1-2.79c0.03-1.41,0.15-2.85,0.26-4.25c0.13-1.64,0.26-3.33,0.27-5.02
		c0.03-4.58,0.03-9.24,0.03-13.75c0-5.95-0.01-12.11,0.07-18.16c0.04-3.11,0.42-5.62,1.15-7.67c1.95-5.44,5.7-8.49,11.16-9.04
		c1.22-0.12,2.44-0.26,3.9-0.41l3.38-0.36v-0.78c0-1.29,0.03-2.5,0.05-3.67c0.05-2.41,0.1-4.68-0.11-6.91
		c-0.31-3.36,1.08-7.11,3.74-10.01c2.63-2.88,6.1-4.54,9.52-4.54c0.33,0,0.66,0.01,0.98,0.04c0.53,0.05,1.09,0.07,1.77,0.07
		c0.48,0,0.98-0.01,1.48-0.02c0.53-0.01,1.08-0.02,1.66-0.02h0.64l0.19-0.61c1.43-4.65,3.38-9.78,8.35-11.85
		c2.16-0.9,4.66-1.42,6.84-1.42c0.78,0,1.52,0.06,2.21,0.19c10.05,1.87,12.15,9.19,12.23,19.6l0.01,0.82c0,0,2.11,0.1,2.71,0.12
		c1.24,0.06,2.38,0.11,3.52,0.15c8.17,0.28,13.73,5.83,13.82,13.81c0.12,9.62,0.1,19.41,0.08,28.88c-0.01,4.88-0.02,9.75-0.01,14.63
		c0,1.48,0.06,2.94,0.14,4.79c0.04,0.97,0.09,2.05,0.13,3.29l0.07,1.97l1.4-1.39c0.67-0.67,1.22-1.18,1.71-1.64
		c0.85-0.8,1.46-1.37,1.96-2.06c1.14-1.56,2.26-3.17,3.34-4.73c1.41-2.03,2.87-4.12,4.38-6.12c2.99-3.95,7.22-6.12,11.92-6.12
		c2.57,0,5.18,0.64,7.74,1.89c7.34,3.58,10.38,10.37,7.93,17.7c-1.58,4.72-3.86,9.26-6.59,13.12c-6.1,8.61-9.81,17.55-11.34,27.31
		c-1.51,9.68-5.65,18.31-10.51,27.78c-0.9,1.75-2.06,2.5-3.87,2.5l0,0c-0.28,0-0.59-0.02-0.91-0.05l-0.07-0.01
		c-1.53-0.17-2.84-1.07-3.54-2.42c-0.69-1.33-0.66-2.85,0.07-4.15c0.21-0.37,0.41-0.74,0.61-1.11c5.24-9.67,8.59-19.18,10.26-29.05
		c1.39-8.23,4.74-16.06,10.25-23.93c2.5-3.57,4.6-7.12,6.25-10.55c1.79-3.73,1.06-6.45-2.31-8.55c-1.47-0.91-2.76-1.36-3.97-1.36
		c-1.88,0-3.52,1.03-5.14,3.25c-3.08,4.21-6.13,8.55-9.08,12.75c-1.97,2.8-4.01,5.7-6.03,8.54l-0.28,0.39
		c-1.1,1.54-2.23,3.13-3.62,4.29c-1.34,1.12-2.77,1.71-4.12,1.71c-2.3,0-4.15-1.69-4.96-4.53c-0.64-2.25-0.97-4.72-0.96-7.13
		c0.04-10.67,0.13-21.51,0.22-32c0.06-7.76,0.13-15.78,0.18-23.68c0.01-1.76-0.04-3.78-0.82-5.47c-0.59-1.29-2.36-3.16-4.01-3.17h0
		c-1.78,0-4.26,1.13-4.96,2.64c-1.03,2.23-1.17,4.96-1.18,7.1c-0.04,11.93-0.02,24.06-0.01,35.79c0.01,4.71,0.02,9.41,0.02,14.12
		c0,0.46,0,0.93,0.01,1.39c0.01,1.62,0.03,3.3-0.11,4.91c-0.29,3.43-1.39,4.55-4.52,4.63c-0.1,0-0.2,0-0.3,0
		c-3.18,0-4.35-1.2-4.64-4.76c-0.13-1.64-0.12-3.34-0.11-4.98c0-0.44,0.01-0.88,0.01-1.33c0-6.43,0.01-12.87,0.01-19.3
		c0.01-16.88,0.03-34.33,0-51.49c0-2.09-0.3-4.27-0.88-6.47c-0.55-2.08-2.15-3.42-4.1-3.42c-0.51,0-1.02,0.09-1.52,0.27
		c-1.63,0.59-2.99,2.38-3.71,3.85c-0.5,1.02-0.43,2.19-0.36,3.33c0.02,0.37,0.04,0.72,0.04,1.06c0,7.46,0.01,14.91,0.02,22.37
		c0.01,16.82,0.03,34.22,0.01,51.32c0,2.03-0.05,4.17-0.59,6.04c-0.72,2.5-2.05,3.57-4.42,3.57c-0.39,0-0.82-0.03-1.27-0.09
		c-2.14-0.28-3.61-1.21-3.85-4.82c-0.06-0.91-0.05-1.86-0.03-2.78c0.01-0.41,0.01-0.81,0.01-1.22l0.01-14.27
		c0.01-14.58,0.02-29.17,0.01-43.75c0-0.42,0.01-0.85,0.01-1.27c0.02-1.73,0.04-3.52-0.29-5.25c-0.53-2.73-2.43-4.36-5.1-4.36
		c-0.1,0-0.2,0-0.3,0.01c-2.85,0.12-4.59,1.84-4.88,4.82c-0.11,1.06-0.09,2.13-0.08,3.17c0,0.33,0.01,0.65,0.01,0.98l0.07,59.76
		c0,0.45,0.01,0.9,0.01,1.36c0.01,1.25,0.03,2.55-0.06,3.8c-0.16,2.25-1.34,3.5-3.6,3.83c-0.36,0.05-0.7,0.08-1.03,0.08
		c-2.01,0-3.28-0.96-3.9-2.95c-0.46-1.47-0.5-3.14-0.51-4.87c-0.03-8.18-0.03-16.5-0.03-24.55c0-3.42,0-6.84,0-10.26l0-0.54
		c0-1.17,0-2.38-0.08-3.58c-0.18-2.66-1.73-4.3-4.39-4.6c-0.26-0.03-0.51-0.05-0.76-0.05c-2.29,0-4,1.26-4.67,3.46
		c-0.45,1.48-0.68,3.23-0.7,5.35c-0.03,3.64-0.02,7.34-0.02,10.91c0.01,4.98,0.02,10.13-0.07,15.19c-0.04,2.52-0.21,5.09-0.38,7.58
		c-0.19,2.82-0.38,5.73-0.39,8.61c-0.02,5.69,0.26,10,0.9,13.97c1.36,8.44,3.08,17.66,5.4,29c1.72,8.39,5.07,15.23,10.27,20.92
		c4.12,4.52,5.53,9.33,4.45,15.16c-1.14,6.12-1.62,12.43-2.08,18.54c-0.23,3-0.46,6.1-0.78,9.14c-0.54,5.28-1.13,10.65-1.71,15.84
		c-0.47,4.23-0.95,8.6-1.4,12.9c-0.11,1.06-0.15,2.13-0.19,3.16c-0.05,1.49-0.1,2.9-0.35,4.28c-0.45,2.53-1.98,4.19-4.1,4.44
		C103.5,273.95,103.41,273.96,103.32,273.96z"/>
	<path  style="fill:white;" d="M177.46,273.99c-14.63-0.04-23.64-6.98-28.63-12.8c-6.05-7.06-9.66-16.71-9.65-25.82
		c0.01-17.86,15.15-37.75,36.84-37.75c0.48,0,0.97,0.01,1.45,0.03l0.04,0l0.04,0c0.48-0.02,0.96-0.03,1.44-0.03
		c9.44,0,18.82,4.02,25.75,11.04c7.24,7.33,11.16,17.04,11.03,27.34c-0.13,10.28-4.02,19.82-10.97,26.87
		c-7.07,7.17-16.74,11.12-27.23,11.12C177.57,273.99,177.46,273.99,177.46,273.99z M177.52,206.69c-0.17,0-0.34,0-0.51,0.01
		c-7.02,0.15-14.16,3.18-19.58,8.3c-5.74,5.42-8.87,12.45-8.8,19.81c-0.02,8.2,3.12,16.06,8.61,21.56
		c5.31,5.32,12.36,8.13,20.4,8.13l0.33,0c7.8-0.07,14.98-3.08,20.21-8.46c5.25-5.4,8.18-12.84,8.24-20.95
		c0.06-9.22-4.32-15.58-8.01-19.3C192.85,210.17,184.84,206.69,177.52,206.69z"/>
	<path  style="fill:white;" d="M189.56,252.99c-1.24,0-2.39-0.49-3.26-1.38l-9.42-9.73l-9.42,9.73c-0.86,0.89-2.02,1.38-3.26,1.38
		c-1.18,0-2.3-0.45-3.15-1.28c-0.87-0.84-1.36-1.97-1.38-3.18c-0.02-1.21,0.43-2.36,1.28-3.23l9.62-9.93l-9.62-9.93
		c-0.84-0.87-1.3-2.01-1.28-3.23c0.02-1.21,0.51-2.34,1.38-3.18c0.85-0.82,1.97-1.28,3.15-1.28c1.24,0,2.39,0.49,3.26,1.38
		l9.42,9.73l9.42-9.73c0.86-0.89,2.02-1.38,3.26-1.38c1.18,0,2.3,0.45,3.15,1.28c0.87,0.84,1.36,1.97,1.38,3.18
		c0.02,1.21-0.43,2.36-1.28,3.23l-9.62,9.93l9.62,9.93c0.84,0.87,1.3,2.01,1.28,3.23c-0.02,1.21-0.51,2.34-1.38,3.18
		C191.87,252.54,190.75,252.99,189.56,252.99z"/>
</g>
  </symbol>
</svg>
