<?xml version="1.0" encoding="utf-8"?>
<!-- Generator: Adobe Illustrator 23.0.2, SVG Export Plug-In . SVG Version: 6.00 Build 0)  -->
<svg version="1.1" id="Layer_1" xmlns="http://www.w3.org/2000/svg" xmlns:xlink="http://www.w3.org/1999/xlink" x="0px" y="0px"
	 viewBox="0 0 300 300" style="enable-background:new 0 0 300 300;" xml:space="preserve">
	  <symbol viewBox="0 0 300 300" fill-rule="evenodd" id="RepairIcon">
<g>
	<path style="fill:white;" d="M220.93,214.31c-4.5,0-8.17,3.67-8.17,8.17c0,4.5,3.67,8.17,8.17,8.17c4.5,0,8.17-3.67,8.17-8.17
		C229.1,217.98,225.44,214.31,220.93,214.31z"/>
	<path style="fill:white;" d="M80.59,214.31c-4.5,0-8.17,3.67-8.17,8.17c0,4.5,3.67,8.17,8.17,8.17s8.17-3.67,8.17-8.17
		C88.76,217.98,85.1,214.31,80.59,214.31z"/>
	<g>
		<g>
			<g>
				<path style="fill:white;" d="M263.53,169.93l-19.93-9.04l-17.59-28.05c-5.12-8.28-14.21-13.34-23.96-13.29h-74.89
					c-8.82,0.05-17.16,4.14-22.49,11.16l-18.35,24.13l-34.96-24.89c-6.54-4.68-15.47-4.25-21.51,1.09l-4.85,4.19
					c-2.29,1.96-2.51,5.45-0.49,7.68s5.45,2.51,7.68,0.49l4.85-4.19c2.23-1.96,5.56-2.12,8.01-0.38l32.13,22.87l-33.06,9.04
					c-9.8,2.67-16.67,11.6-16.72,21.78v14.49c0.05,12.47,10.24,22.55,22.71,22.55h3c3.27,11.98,14.43,21.13,27.61,21.13
					s24.29-9.15,27.61-21.13h84.8c3.27,11.98,14.43,21.13,27.61,21.13s24.29-9.15,27.61-21.13h5.83c12.47,0,22.66-10.08,22.71-22.55
					v-16.56C276.77,181.64,271.6,173.58,263.53,169.93z M166.27,130.45h35.78c5.99,0,11.55,3.1,14.76,8.17l12.96,20.7h-63.5V130.45z
					 M113.27,137.31c3.32-4.3,8.44-6.86,13.83-6.86h28.27v28.86H96.55L113.27,137.31z M80.65,239.86c-9.75,0-17.7-7.9-17.7-17.7
					c0-9.75,7.9-17.7,17.7-17.7c9.75,0,17.7,7.9,17.7,17.7C98.35,231.91,90.46,239.86,80.65,239.86z M220.67,239.86
					c-9.75,0-17.7-7.95-17.7-17.7s7.95-17.7,17.7-17.7c9.75,0,17.7,7.95,17.7,17.7S230.48,239.86,220.67,239.86z M265.93,207.02
					c-0.05,6.48-5.34,11.65-11.82,11.65h-5.06c-1.91-15.69-16.12-26.85-31.81-24.94c-13.07,1.58-23.36,11.87-24.94,24.94h-83.27
					c-1.91-15.69-16.12-26.85-31.81-24.94c-13.07,1.58-23.36,11.87-24.94,24.94H50.1c-6.48,0-11.76-5.17-11.82-11.65v-14.49
					c0.05-5.28,3.59-9.91,8.66-11.27l39.7-10.84c0.22-0.05,0.44-0.11,0.65-0.22h150.48l21.24,9.64c4.19,1.91,6.86,6.05,6.92,10.67
					V207.02L265.93,207.02z"/>
			</g>
		</g>
		<g>
			<g>
				<path style="fill:white;" d="M79.4,82.79c0-5.12-1.8-7.9-3.1-9.97c-0.93-1.47-1.36-2.18-1.36-4.08c0-1.91,0.44-2.56,1.36-4.08
					c1.31-2.07,3.1-4.85,3.1-9.91c0-3-2.45-5.45-5.45-5.45s-5.45,2.45-5.45,5.45c0,1.91-0.44,2.56-1.36,4.08
					c-1.31,2.07-3.1,4.85-3.1,9.91s1.8,7.9,3.1,9.97c0.93,1.47,1.36,2.18,1.36,4.08c0,1.91-0.44,2.61-1.36,4.08
					c-1.31,2.07-3.1,4.85-3.1,9.97s1.8,7.9,3.1,9.97c0.93,1.47,1.36,2.18,1.36,4.08c0,3,2.45,5.45,5.45,5.45s5.45-2.45,5.45-5.45
					c0-5.12-1.8-7.9-3.1-9.97c-0.93-1.47-1.36-2.18-1.36-4.08s0.44-2.61,1.36-4.08C77.6,90.69,79.4,87.91,79.4,82.79z"/>
			</g>
		</g>
		<g>
			<g>
				<path style="fill:white;" d="M95.36,96.85c0-1.91,0.44-2.61,1.36-4.08c1.31-2.07,3.1-4.85,3.1-9.97s-1.8-7.9-3.1-9.97
					c-0.93-1.47-1.36-2.18-1.36-4.08c0-3-2.45-5.45-5.45-5.45s-5.45,2.45-5.45,5.45c0,5.12,1.8,7.9,3.1,9.97
					c0.93,1.47,1.36,2.18,1.36,4.08c0,1.91-0.44,2.61-1.36,4.08c-1.31,2.07-3.1,4.85-3.1,9.97s1.8,7.9,3.1,9.97
					c0.93,1.47,1.36,2.18,1.36,4.08c0,3,2.45,5.45,5.45,5.45s5.45-2.45,5.45-5.45c0-5.12-1.8-7.9-3.1-9.97
					C95.79,99.46,95.36,98.75,95.36,96.85z"/>
			</g>
		</g>
		<g>
			<g>
				<path style="fill:white;" d="M54.56,96.85c0-1.91,0.44-2.61,1.36-4.08c1.31-2.07,3.1-4.85,3.1-9.97s-1.8-7.9-3.1-9.97
					c-0.93-1.47-1.36-2.18-1.36-4.08c0-3-2.45-5.45-5.45-5.45s-5.45,2.45-5.45,5.45c0,5.12,1.8,7.9,3.1,9.97
					c0.93,1.47,1.36,2.18,1.36,4.08c0,1.91-0.44,2.61-1.36,4.08c-1.31,2.07-3.1,4.85-3.1,9.97s1.8,7.9,3.1,9.97
					c0.93,1.47,1.36,2.18,1.36,4.08c0,3,2.45,5.45,5.45,5.45s5.45-2.45,5.45-5.45c0-5.12-1.8-7.9-3.1-9.97
					C55,99.46,54.56,98.75,54.56,96.85z"/>
			</g>
		</g>
	</g>
</g>
 </symbol>
</svg>
