<?xml version="1.0" encoding="utf-8"?>
<!-- Generator: Adobe Illustrator 23.0.2, SVG Export Plug-In . SVG Version: 6.00 Build 0)  -->
<svg version="1.1" id="Layer_1" xmlns="http://www.w3.org/2000/svg" xmlns:xlink="http://www.w3.org/1999/xlink" x="0px" y="0px"
	 viewBox="0 0 300 300" style="enable-background:new 0 0 300 300;" xml:space="preserve">
	 <symbol viewBox="0 0 300 300" fill-rule="evenodd" id="TowingIcon">
<g>
	<path style="fill:white;" d="M244.38,119.63c-2.4-4.81-7.4-7.83-12.69-7.71c-12.47,0-44.37,0-58.12,0c-7.72-0.15-14.16,6.12-14.16,14.12
		v35.82l-28.88-75.17c-0.7-1.82-2.45-3.02-4.4-3.02H48.3c-2.6,0-4.71,2.11-4.71,4.71v47.57c-7.92,2.03-14.12,9.27-14.12,18.24
		c0,10.4,8.43,18.83,18.83,18.83c10.4,0,18.83-8.43,18.83-18.83c0-2.6-2.11-4.71-4.71-4.71s-4.71,2.11-4.71,4.71
		c0,5.2-4.22,9.42-9.42,9.42s-9.42-4.22-9.42-9.42c0-5.2,4.22-9.42,9.42-9.42c2.6,0,4.71-2.11,4.71-4.71v-18.73h50.49l23.51,61.21
		H43.6c-7.79,0-14.12,6.29-14.12,14.03v23.54c0,7.84,6.34,14.22,14.12,14.22h0.04c-0.03,0.47-0.04,0.94-0.04,1.41
		c0,14.28,11.62,25.89,25.89,25.89s25.89-11.62,25.89-25.89c0-0.47-0.02-0.94-0.04-1.41h14.64c2.6,0,4.71-2.11,4.71-4.71
		c0-2.6-2.11-4.71-4.71-4.71H93.01c-4.18-9.02-13.39-15.07-23.51-15.07c-10.12,0-19.33,6.05-23.51,15.07H43.6
		c-2.6,0-4.71-2.16-4.71-4.81v-23.54c0-2.58,2.07-4.61,4.71-4.61h115.82v32.96h-7.06c-2.6,0-4.71,2.11-4.71,4.71
		c0,2.6,2.11,4.7,4.71,4.7h35.35c-0.03,0.47-0.04,0.94-0.04,1.41c0,14.28,11.62,25.9,25.89,25.9s25.89-11.62,25.89-25.89
		c0-0.47-0.02-0.94-0.04-1.41c0,0,17.05,0,17.08,0c7.74-0.15,14.03-6.53,14.03-14.22v-47.08c0-0.73-0.17-1.45-0.5-2.11
		L244.38,119.63z M69.49,219.27c8.84,0,16.48,7.2,16.48,16.48c0,9.09-7.39,16.48-16.48,16.48s-16.48-7.39-16.48-16.48
		C53.01,226.48,60.65,219.27,69.49,219.27z M137.09,182.54l-25.96-67.6c-0.7-1.82-2.45-3.02-4.4-3.02H53.01V93.09h69.9l34.36,89.45
		H137.09z M231.75,121.34c0.04,0,0.09,0,0.13,0c1.7-0.03,3.3,0.94,4.08,2.51l22.29,44.58h-61.17v-47.08H231.75z M213.56,252.22
		c-9.09,0-16.48-7.39-16.48-16.48c0-9.27,7.64-16.48,16.48-16.48c8.82,0,16.48,7.19,16.48,16.48
		C230.04,244.83,222.65,252.22,213.56,252.22z M256.35,224.92h-19.28c-4.18-9.02-13.39-15.07-23.51-15.07
		c-10.12,0-19.33,6.05-23.51,15.07h-21.21c0-11.7,0-97.51,0-98.87c0-2.69,2.06-4.71,4.53-4.71c0.06,0,14.3,0,14.3,0v51.79
		c0,2.6,2.11,4.71,4.71,4.71h68.74v18.83h-9.42c-2.6,0-4.71,2.11-4.71,4.71c0,2.6,2.11,4.71,4.71,4.71h9.42v14.03
		C261.11,222.7,258.98,224.85,256.35,224.92z"/>
	<path style="fill:white;" d="M213.56,229.13c-3.89,0-7.06,3.17-7.06,7.06s3.17,7.06,7.06,7.06s7.06-3.17,7.06-7.06
		S217.45,229.13,213.56,229.13z"/>
	<path style="fill:white;" d="M69.05,229.13c-3.89,0-7.06,3.17-7.06,7.06s3.17,7.06,7.06,7.06s7.06-3.17,7.06-7.06
		S72.94,229.13,69.05,229.13z"/>
</g>
</symbol>
</svg>
